<svg width="16" height="15" viewBox="0 0 16 15" fill="none" xmlns="http://www.w3.org/2000/svg">
<path d="M8.50002 9C8.35169 9 8.20668 9.04399 8.08334 9.1264C7.96001 9.20881 7.86388 9.32594 7.80711 9.46299C7.75035 9.60003 7.73549 9.75083 7.76443 9.89632C7.79337 10.0418 7.8648 10.1754 7.96969 10.2803C8.07458 10.3852 8.20822 10.4566 8.3537 10.4856C8.49919 10.5145 8.64999 10.4997 8.78703 10.4429C8.92408 10.3861 9.04121 10.29 9.12362 10.1667C9.20604 10.0433 9.25002 9.89834 9.25002 9.75C9.25002 9.55109 9.171 9.36032 9.03035 9.21967C8.8897 9.07902 8.69893 9 8.50002 9ZM8.50002 0C7.51511 0 6.53984 0.193993 5.6299 0.570904C4.71995 0.947814 3.89316 1.50026 3.19672 2.1967C1.7902 3.60322 1.00002 5.51088 1.00002 7.5C0.993465 9.23185 1.59312 10.9114 2.69502 12.2475L1.19502 13.7475C1.09095 13.853 1.02046 13.9869 0.992426 14.1324C0.964395 14.2779 0.980087 14.4284 1.03752 14.565C1.09981 14.6999 1.2008 14.8133 1.32766 14.8908C1.45451 14.9682 1.60152 15.0063 1.75002 15H8.50002C10.4891 15 12.3968 14.2098 13.8033 12.8033C15.2098 11.3968 16 9.48912 16 7.5C16 5.51088 15.2098 3.60322 13.8033 2.1967C12.3968 0.790176 10.4891 0 8.50002 0ZM8.50002 13.5H3.55752L4.25502 12.8025C4.32589 12.733 4.38227 12.6502 4.42089 12.5588C4.45951 12.4674 4.47961 12.3692 4.48002 12.27C4.4772 12.0722 4.39633 11.8835 4.25502 11.745C3.27296 10.764 2.6614 9.4729 2.52454 8.09159C2.38768 6.71029 2.73398 5.32425 3.50444 4.16964C4.27491 3.01503 5.42186 2.16327 6.74991 1.75948C8.07795 1.35569 9.50492 1.42485 10.7877 1.95519C12.0705 2.48552 13.1297 3.44421 13.7849 4.66792C14.44 5.89163 14.6507 7.30466 14.3809 8.66625C14.1111 10.0279 13.3775 11.2538 12.3052 12.1352C11.2328 13.0166 9.88809 13.4989 8.50002 13.5ZM8.50002 4.5C8.30111 4.5 8.11034 4.57902 7.96969 4.71967C7.82904 4.86032 7.75002 5.05109 7.75002 5.25V7.5C7.75002 7.69891 7.82904 7.88968 7.96969 8.03033C8.11034 8.17098 8.30111 8.25 8.50002 8.25C8.69893 8.25 8.8897 8.17098 9.03035 8.03033C9.171 7.88968 9.25002 7.69891 9.25002 7.5V5.25C9.25002 5.05109 9.171 4.86032 9.03035 4.71967C8.8897 4.57902 8.69893 4.5 8.50002 4.5Z" fill="white"/>
</svg>
