<svg width="13" height="17" viewBox="0 0 13 17" fill="none" xmlns="http://www.w3.org/2000/svg">
<path d="M12.7258 5.80872C12.6668 5.67312 12.571 5.55675 12.4493 5.4728C12.3275 5.38885 12.1847 5.34067 12.037 5.33372H8.41118L9.41659 1.58122C9.44861 1.46379 9.45313 1.34057 9.42979 1.22111C9.40645 1.10166 9.35588 0.989199 9.28201 0.892466C9.20745 0.7956 9.11146 0.717316 9.00158 0.66375C8.8917 0.610184 8.77091 0.58279 8.64868 0.583716H3.10701C2.92828 0.577594 2.75274 0.632166 2.60899 0.738544C2.46524 0.844922 2.36173 0.996838 2.31534 1.16955L0.193675 9.08622C0.161396 9.2058 0.157628 9.33129 0.182674 9.4526C0.20772 9.57391 0.260882 9.68765 0.337884 9.78467C0.414886 9.88169 0.51358 9.95929 0.62603 10.0112C0.738481 10.0632 0.86155 10.088 0.985342 10.0837H4.03326L2.60034 15.4195C2.55339 15.5916 2.56592 15.7745 2.63589 15.9385C2.70586 16.1026 2.82917 16.2382 2.98585 16.3234C3.14253 16.4086 3.32339 16.4384 3.49912 16.408C3.67486 16.3776 3.83517 16.2887 3.95409 16.1558L12.5833 6.6558C12.686 6.54329 12.7541 6.40352 12.7794 6.25327C12.8047 6.10301 12.786 5.94865 12.7258 5.80872ZM4.97534 12.6804L5.83034 9.51372C5.86606 9.39458 5.87321 9.2687 5.8512 9.14629C5.82919 9.02388 5.77865 8.90837 5.70368 8.80913C5.62831 8.71119 5.53105 8.63225 5.4197 8.57864C5.30835 8.52502 5.18599 8.49822 5.06242 8.50038H2.02242L3.71659 2.16705H7.61951L6.61409 5.91955C6.58181 6.03914 6.57805 6.16463 6.60309 6.28593C6.62814 6.40724 6.6813 6.52098 6.7583 6.618C6.8353 6.71502 6.934 6.79263 7.04645 6.84456C7.1589 6.8965 7.28197 6.92133 7.40576 6.91705H10.232L4.97534 12.6804Z" fill="#4C565C"/>
</svg>
