<svg width="14" height="15" viewBox="0 0 14 15" fill="none" xmlns="http://www.w3.org/2000/svg">
<path d="M13.2734 5.26C13.2734 5.26 13.2734 5.26 13.2734 5.22667C12.8036 3.94415 11.9513 2.83686 10.8317 2.05458C9.71207 1.2723 8.3792 0.852783 7.01336 0.852783C5.64753 0.852783 4.31465 1.2723 3.19504 2.05458C2.07542 2.83686 1.2231 3.94415 0.753362 5.22667C0.753362 5.22667 0.753362 5.22667 0.753362 5.26C0.228778 6.70727 0.228778 8.29274 0.753362 9.74C0.753362 9.74 0.753362 9.74 0.753362 9.77334C1.2231 11.0559 2.07542 12.1631 3.19504 12.9454C4.31465 13.7277 5.64753 14.1472 7.01336 14.1472C8.3792 14.1472 9.71207 13.7277 10.8317 12.9454C11.9513 12.1631 12.8036 11.0559 13.2734 9.77334C13.2734 9.77334 13.2734 9.77333 13.2734 9.74C13.7979 8.29274 13.7979 6.70727 13.2734 5.26ZM1.84003 8.83334C1.60885 7.95948 1.60885 7.04053 1.84003 6.16667H3.08003C2.97338 7.05236 2.97338 7.94765 3.08003 8.83334H1.84003ZM2.3867 10.1667H3.32003C3.47651 10.7612 3.70017 11.336 3.9867 11.88C3.33289 11.4346 2.78636 10.8494 2.3867 10.1667ZM3.32003 4.83334H2.3867C2.78061 4.15273 3.32016 3.56765 3.96669 3.12C3.68706 3.66483 3.47012 4.23961 3.32003 4.83334ZM6.33336 12.6333C5.51454 12.0325 4.93946 11.1568 4.71336 10.1667H6.33336V12.6333ZM6.33336 8.83334H4.4267C4.30229 7.9488 4.30229 7.0512 4.4267 6.16667H6.33336V8.83334ZM6.33336 4.83334H4.71336C4.93946 3.84318 5.51454 2.96755 6.33336 2.36667V4.83334ZM11.6134 4.83334H10.68C10.5235 4.23877 10.2999 3.66396 10.0134 3.12C10.6672 3.56538 11.2137 4.15063 11.6134 4.83334ZM7.66669 2.36667C8.48552 2.96755 9.0606 3.84318 9.28669 4.83334H7.66669V2.36667ZM7.66669 12.6333V10.1667H9.28669C9.0606 11.1568 8.48552 12.0325 7.66669 12.6333ZM9.57336 8.83334H7.66669V6.16667H9.57336C9.69777 7.0512 9.69777 7.9488 9.57336 8.83334ZM10.0334 11.88C10.3199 11.336 10.5435 10.7612 10.7 10.1667H11.6334C11.2337 10.8494 10.6872 11.4346 10.0334 11.88ZM12.16 8.83334H10.92C10.9742 8.39097 11.001 7.94567 11 7.5C11.0008 7.05434 10.974 6.60905 10.92 6.16667H12.16C12.3912 7.04053 12.3912 7.95948 12.16 8.83334Z" fill="#1A1C1F"/>
</svg>
