<svg width="17" height="17" viewBox="0 0 17 17" fill="none" xmlns="http://www.w3.org/2000/svg">
<path d="M15.4904 4.7949C14.8484 3.5951 13.9111 2.57878 12.7671 1.84199C11.7318 1.17594 10.5554 0.760525 9.33138 0.628743C8.10739 0.496961 6.86953 0.652445 5.71616 1.08284C4.56278 1.51324 3.52567 2.20669 2.68722 3.10809C1.84878 4.0095 1.2321 5.09402 0.886197 6.27549C0.540291 7.45696 0.474685 8.70282 0.694592 9.91408C0.914499 11.1253 1.41386 12.2686 2.15299 13.2531C2.89213 14.2376 3.85068 15.0361 4.95247 15.5853C6.05427 16.1344 7.26895 16.4191 8.50001 16.4166H8.7296C10.0747 16.3769 11.3875 15.995 12.5439 15.3069C13.7004 14.6189 14.6624 13.6474 15.3391 12.4842C16.0157 11.321 16.3847 10.0046 16.4112 8.65917C16.4377 7.31376 16.1208 5.9838 15.4904 4.7949ZM7.70835 14.7778C6.18688 14.5752 4.79076 13.827 3.77958 12.6722C2.76841 11.5175 2.211 10.0348 2.211 8.4999C2.211 6.965 2.76841 5.48233 3.77958 4.32758C4.79076 3.17283 6.18688 2.42459 7.70835 2.22199V14.7778ZM9.29168 2.22199C9.97609 2.30954 10.6418 2.50738 11.2629 2.80782L9.29168 6.2199V2.22199ZM9.29168 9.34699L12.5929 3.67074C13.0797 4.0887 13.5013 4.577 13.8438 5.11949L9.29168 13.0045V9.34699ZM10.2021 14.5562L14.6275 6.91657C14.7613 7.43381 14.8305 7.96564 14.8333 8.4999C14.8324 9.88216 14.3792 11.2261 13.543 12.3268C12.7068 13.4274 11.5335 14.2243 10.2021 14.5957V14.5562Z" fill="#4C565C"/>
</svg>
