<svg width="16" height="16" viewBox="0 0 16 16" fill="none" xmlns="http://www.w3.org/2000/svg">
<path d="M10.25 8C10.25 6.725 9.275 5.75 8 5.75C6.725 5.75 5.75 6.725 5.75 8C5.75 9.275 6.725 10.25 8 10.25C9.275 10.25 10.25 9.275 10.25 8ZM11.75 1.475C8.825 -0.175 5.225 0.35 2.825 2.525V1.25C2.825 0.8 2.525 0.5 2.075 0.5C1.625 0.5 1.325 0.8 1.325 1.25V4.625C1.325 5.075 1.625 5.375 2.075 5.375H5.45C5.9 5.375 6.2 5.075 6.2 4.625C6.2 4.175 5.9 3.875 5.45 3.875H3.65C4.775 2.675 6.35 2 8 2C11.3 2 14 4.7 14 8C14 8.45 14.3 8.75 14.75 8.75C15.2 8.75 15.5 8.45 15.5 8C15.5 5.3 14.075 2.825 11.75 1.475ZM13.925 10.625H10.55C10.1 10.625 9.8 10.925 9.8 11.375C9.8 11.825 10.1 12.125 10.55 12.125H12.35C11.225 13.325 9.65 14 8 14C4.7 14 2 11.3 2 8C2 7.55 1.7 7.25 1.25 7.25C0.8 7.25 0.5 7.55 0.5 8C0.5 12.125 3.875 15.5 8 15.5C9.95 15.5 11.75 14.75 13.175 13.4V14.75C13.175 15.2 13.475 15.5 13.925 15.5C14.375 15.5 14.675 15.2 14.675 14.75V11.375C14.675 10.925 14.3 10.625 13.925 10.625Z" fill="#34383E"/>
</svg>
