<svg width="16" height="17" viewBox="0 0 16 17" fill="none" xmlns="http://www.w3.org/2000/svg">
<path fill-rule="evenodd" clip-rule="evenodd" d="M1.6 7.69999C1.6 4.6072 4.1072 2.1 7.19999 2.1C10.2928 2.1 12.8 4.6072 12.8 7.69999C12.8 9.20881 12.2033 10.5783 11.233 11.5852C11.2056 11.6063 11.1794 11.6293 11.1543 11.6543C11.1293 11.6794 11.1063 11.7056 11.0852 11.733C10.0783 12.7033 8.70881 13.3 7.19999 13.3C4.1072 13.3 1.6 10.7928 1.6 7.69999ZM11.6941 13.3255C10.4624 14.3108 8.9 14.9 7.19999 14.9C3.22355 14.9 0 11.6764 0 7.69999C0 3.72355 3.22355 0.5 7.19999 0.5C11.1764 0.5 14.4 3.72355 14.4 7.69999C14.4 9.4 13.8108 10.9624 12.8255 12.1941L15.7657 15.1343C16.0781 15.4467 16.0781 15.9533 15.7657 16.2657C15.4533 16.5781 14.9467 16.5781 14.6343 16.2657L11.6941 13.3255Z" fill="#4C565C"/>
</svg>
