<svg width="7" height="5" viewBox="0 0 7 5" fill="none" xmlns="http://www.w3.org/2000/svg">
<path d="M6.56089 0.686209C6.44091 0.566943 6.27861 0.5 6.10944 0.5C5.94027 0.5 5.77797 0.566943 5.658 0.686209L3.35914 2.95305L1.09231 0.686209C0.972329 0.566943 0.810031 0.5 0.64086 0.5C0.471689 0.5 0.309392 0.566943 0.189414 0.686209C0.129395 0.745738 0.0817568 0.816561 0.0492471 0.894593C0.0167374 0.972626 0 1.05632 0 1.14086C0 1.22539 0.0167374 1.30909 0.0492471 1.38712C0.0817568 1.46515 0.129395 1.53598 0.189414 1.5955L2.90449 4.31059C2.96402 4.3706 3.03485 4.41824 3.11288 4.45075C3.19091 4.48326 3.27461 4.5 3.35914 4.5C3.44368 4.5 3.52737 4.48326 3.60541 4.45075C3.68344 4.41824 3.75426 4.3706 3.81379 4.31059L6.56089 1.5955C6.62091 1.53598 6.66855 1.46515 6.70106 1.38712C6.73357 1.30909 6.7503 1.22539 6.7503 1.14086C6.7503 1.05632 6.73357 0.972626 6.70106 0.894593C6.66855 0.816561 6.62091 0.745738 6.56089 0.686209Z" fill="#1A1C1F"/>
</svg>
